<svg width="3783" height="1130" viewBox="0 0 3783 1130" fill="none" xmlns="http://www.w3.org/2000/svg">
<path d="M102 737C75.3333 683.667 62 627.333 62 568C62 508 75.3333 451.667 102 399C128.667 346.333 167.333 304 218 272C268.667 239.333 328 223 396 223C456 223 509.333 235.667 556 261C603.333 286.333 641.333 320.667 670 364C699.333 407.333 718 455.333 726 508L728 523H568L566 513C556 471 536 437 506 411C476 384.333 439.333 371 396 371C359.333 371 327.667 380.333 301 399C275 417.667 255 442 241 472C227.667 502 221 534 221 568C221 602 227.667 634 241 664C255 694 275.333 718.333 302 737C328.667 755 360 764 396 764C439.333 764 476 751 506 725C536 698.333 556 664 566 622L568 611H728L726 626C718 679.333 699.333 727.667 670 771C641.333 814.333 603.333 849 556 875C509.333 900.333 456 913 396 913C328 913 268.667 897 218 865C167.333 832.333 128.667 789.667 102 737Z" fill="white"/>
<path d="M102 737C75.3333 683.667 62 627.333 62 568C62 508 75.3333 451.667 102 399C128.667 346.333 167.333 304 218 272C268.667 239.333 328 223 396 223C456 223 509.333 235.667 556 261C603.333 286.333 641.333 320.667 670 364C699.333 407.333 718 455.333 726 508L728 523H568L566 513C556 471 536 437 506 411C476 384.333 439.333 371 396 371C359.333 371 327.667 380.333 301 399C275 417.667 255 442 241 472C227.667 502 221 534 221 568C221 602 227.667 634 241 664C255 694 275.333 718.333 302 737C328.667 755 360 764 396 764C439.333 764 476 751 506 725C536 698.333 556 664 566 622L568 611H728L726 626C718 679.333 699.333 727.667 670 771C641.333 814.333 603.333 849 556 875C509.333 900.333 456 913 396 913C328 913 268.667 897 218 865C167.333 832.333 128.667 789.667 102 737Z" fill="white"/>
<path d="M1663 900V236H2120C2162.67 236 2199 245.333 2229 264C2259 282.667 2281.33 307.667 2296 339C2311.33 369.667 2319 403.333 2319 440C2319 487.333 2306 529 2280 565C2254 601 2217 623.667 2169 633C2170.33 635 2171.67 637 2173 639C2175 641 2176.67 643.667 2178 647L2330 900H2157L2001 638H1816V900H1663ZM1816 378V497H2120C2134.67 497 2146 492.333 2154 483C2162 473.667 2166 461.667 2166 447V428C2166 412.667 2162 400.667 2154 392C2146 382.667 2134.67 378 2120 378H1816ZM3122.15 236V378H2643.15V497H2999.15V638H2643.15V759H3122.15V900H2490.15V236H3122.15Z" fill="white"/>
<circle cx="961" cy="321" r="46.5" fill="#EF4242" stroke="#EF4242"/>
<path d="M1483 647.5C1508.12 647.5 1528.5 668.309 1528.5 694C1528.5 719.691 1508.12 740.5 1483 740.5C1457.88 740.5 1437.5 719.691 1437.5 694C1437.5 668.309 1457.88 647.5 1483 647.5Z" fill="#EF4242" stroke="#EF4242"/>
<path d="M1127.5 218.5C1142.4 218.5 1154.5 230.804 1154.5 246C1154.5 261.196 1142.4 273.5 1127.5 273.5C1112.6 273.5 1100.5 261.196 1100.5 246C1100.5 230.804 1112.6 218.5 1127.5 218.5Z" fill="#EF4242" stroke="#EF4242"/>
<path d="M1352 815.5C1367.76 815.5 1380.5 827.829 1380.5 843C1380.5 858.171 1367.76 870.5 1352 870.5C1336.24 870.5 1323.5 858.171 1323.5 843C1323.5 827.829 1336.24 815.5 1352 815.5Z" fill="#EF4242" stroke="#EF4242"/>
<circle cx="1016" cy="843" r="27.5" fill="#EF4242" stroke="#EF4242"/>
<circle cx="1082" cy="731" r="27.5" fill="#EF4242" stroke="#EF4242"/>
<circle cx="1389" cy="470" r="27.5" fill="#EF4242" stroke="#EF4242"/>
<circle cx="1183" cy="490" r="27.5" fill="#EF4242" stroke="#EF4242"/>
<circle cx="1501" cy="508" r="27.5" fill="#EF4242" stroke="#EF4242"/>
<circle cx="848" cy="602" r="27.5" fill="#EF4242" stroke="#EF4242"/>
<circle cx="1333" cy="602" r="27.5" fill="#EF4242" stroke="#EF4242"/>
<circle cx="998" cy="546" r="27.5" fill="#EF4242" stroke="#EF4242"/>
<path d="M1324 236.5C1344.15 236.5 1360.5 253.277 1360.5 274C1360.5 294.723 1344.15 311.5 1324 311.5C1303.85 311.5 1287.5 294.723 1287.5 274C1287.5 253.277 1303.85 236.5 1324 236.5Z" fill="#EF4242" stroke="#EF4242"/>
<circle cx="1436" cy="367" r="18.5" fill="#EF4242" stroke="#EF4242"/>
<path d="M1193.5 647.5C1202.85 647.5 1210.5 655.743 1210.5 666C1210.5 676.257 1202.85 684.5 1193.5 684.5C1184.15 684.5 1176.5 676.257 1176.5 666C1176.5 655.743 1184.15 647.5 1193.5 647.5Z" fill="#EF4242" stroke="#EF4242"/>
<path d="M876 442.5C885.64 442.5 893.5 450.757 893.5 461C893.5 471.243 885.64 479.5 876 479.5C866.36 479.5 858.5 471.243 858.5 461C858.5 450.757 866.36 442.5 876 442.5Z" fill="#EF4242" stroke="#EF4242"/>
<circle cx="1101" cy="405" r="18.5" fill="#EF4242" stroke="#EF4242"/>
<circle cx="1286" cy="367" r="18.5" fill="#EF4242" stroke="#EF4242"/>
<path d="M1249.5 759.5C1258.85 759.5 1266.5 767.743 1266.5 778C1266.5 788.257 1258.85 796.5 1249.5 796.5C1240.15 796.5 1232.5 788.257 1232.5 778C1232.5 767.743 1240.15 759.5 1249.5 759.5Z" fill="#EF4242" stroke="#EF4242"/>
<path d="M1193.5 871.5C1202.85 871.5 1210.5 879.743 1210.5 890C1210.5 900.257 1202.85 908.5 1193.5 908.5C1184.15 908.5 1176.5 900.257 1176.5 890C1176.5 879.743 1184.15 871.5 1193.5 871.5Z" fill="#EF4242" stroke="#EF4242"/>
<circle cx="913" cy="740" r="18.5" fill="#EF4242" stroke="#EF4242"/>
<line x1="1125.34" y1="244.1" x2="1325.34" y2="274.1" stroke="#EF4242" stroke-width="18"/>
<line x1="1321.67" y1="272.013" x2="1438.67" y2="367.013" stroke="#EF4242" stroke-width="18"/>
<line x1="1438.16" y1="371.2" x2="1506.16" y2="517.2" stroke="#EF4242" stroke-width="18"/>
<line x1="1014.6" y1="838.382" x2="1190.6" y2="891.382" stroke="#EF4242" stroke-width="18"/>
<line x1="1498.97" y1="501.719" x2="1481.97" y2="713.719" stroke="#EF4242" stroke-width="18"/>
<line x1="1123.9" y1="247.343" x2="1099.9" y2="406.343" stroke="#EF4242" stroke-width="18"/>
<line x1="1093.33" y1="410.226" x2="996.327" y2="546.226" stroke="#EF4242" stroke-width="18"/>
<path d="M1479.53 703L1348.53 849" stroke="#EF4242" stroke-width="18"/>
<line x1="952.66" y1="316.3" x2="1104.66" y2="408.301" stroke="#EF4242" stroke-width="18"/>
<line x1="879.169" y1="460.633" x2="1003.17" y2="547.633" stroke="#EF4242" stroke-width="18"/>
<line x1="1012.93" y1="547.473" x2="1192.93" y2="665.473" stroke="#EF4242" stroke-width="18"/>
<line x1="846.92" y1="596.543" x2="997.92" y2="541.544" stroke="#EF4242" stroke-width="18"/>
<line x1="988.911" y1="536.246" x2="1185.91" y2="489.246" stroke="#EF4242" stroke-width="18"/>
<line x1="1199.81" y1="492.079" x2="1387.81" y2="467.079" stroke="#EF4242" stroke-width="18"/>
<line x1="1104.4" y1="408.673" x2="1189.4" y2="494.673" stroke="#EF4242" stroke-width="18"/>
<line x1="1292.4" y1="368.673" x2="1377.4" y2="454.673" stroke="#EF4242" stroke-width="18"/>
<line x1="1337.1" y1="596.585" x2="1478.1" y2="693.585" stroke="#EF4242" stroke-width="18"/>
<line x1="1199.07" y1="669.006" x2="1251.07" y2="774.006" stroke="#EF4242" stroke-width="18"/>
<line x1="1197.02" y1="670.05" x2="1071.02" y2="733.05" stroke="#EF4242" stroke-width="18"/>
<line x1="1002.12" y1="544.21" x2="914.339" y2="742.089" stroke="#EF4242" stroke-width="18"/>
<line x1="999.148" y1="542.178" x2="1090.15" y2="736.178" stroke="#EF4242" stroke-width="18"/>
<line x1="913.306" y1="737.027" x2="1081.31" y2="724.027" stroke="#EF4242" stroke-width="18"/>
<line x1="1182.99" y1="497.616" x2="1191.99" y2="661.616" stroke="#EF4242" stroke-width="14"/>
<line x1="1283.01" y1="371.65" x2="1183.01" y2="495.65" stroke="#EF4242" stroke-width="18"/>
<line x1="1278.12" y1="364.746" x2="1105.12" y2="406.746" stroke="#EF4242" stroke-width="18"/>
<line x1="1335.87" y1="600.126" x2="1188.87" y2="670.126" stroke="#EF4242" stroke-width="18"/>
<line x1="1505.36" y1="508.872" x2="1348.36" y2="595.872" stroke="#EF4242" stroke-width="18"/>
<line x1="1486.01" y1="697.481" x2="1241.01" y2="784.481" stroke="#EF4242" stroke-width="18"/>
<line x1="1290.26" y1="363.652" x2="1122.26" y2="259.652" stroke="#EF4242" stroke-width="18"/>
<line x1="1346.63" y1="618.221" x2="1182.63" y2="496.221" stroke="#EF4242" stroke-width="18"/>
<line x1="1497.45" y1="519.272" x2="1385.45" y2="471.272" stroke="#EF4242" stroke-width="18"/>
<line x1="1380.76" y1="472.373" x2="1428.76" y2="363.373" stroke="#EF4242" stroke-width="18"/>
<line x1="1332.76" y1="588.373" x2="1380.76" y2="479.373" stroke="#EF4242" stroke-width="18"/>
<line x1="1248.81" y1="772.272" x2="1319.81" y2="616.272" stroke="#EF4242" stroke-width="18"/>
<line x1="1252.78" y1="777.106" x2="1355.78" y2="843.106" stroke="#EF4242" stroke-width="14"/>
<line x1="1100.2" y1="731.355" x2="1251.2" y2="781.355" stroke="#EF4242" stroke-width="14"/>
<line x1="1245.99" y1="786.15" x2="1192.99" y2="888.15" stroke="#EF4242" stroke-width="18"/>
<line x1="1089.38" y1="735.848" x2="1200.38" y2="894.848" stroke="#EF4242" stroke-width="18"/>
<line x1="999.133" y1="546.539" x2="961.133" y2="327.539" stroke="#EF4242" stroke-width="18"/>
<line x1="1320.84" y1="283.295" x2="1283.84" y2="371.294" stroke="#EF4242" stroke-width="17"/>
<line x1="1007.29" y1="839.349" x2="1074.29" y2="728.349" stroke="#EF4242" stroke-width="18"/>
<line x1="962.698" y1="316.662" x2="876.698" y2="458.662" stroke="#EF4242" stroke-width="18"/>
<line x1="1119.07" y1="248.03" x2="959.065" y2="329.03" stroke="#EF4242" stroke-width="18"/>
<line x1="877.801" y1="455.882" x2="843.801" y2="614.882" stroke="#EF4242" stroke-width="18"/>
<path d="M1341 840.5L1190.5 891" stroke="#EF4242" stroke-width="18"/>
<line x1="843.159" y1="591.2" x2="911.159" y2="737.2" stroke="#EF4242" stroke-width="18"/>
<line x1="909.394" y1="734.666" x2="1014.39" y2="840.666" stroke="#EF4242" stroke-width="18"/>
<path d="M102 737C75.3333 683.667 62 627.333 62 568C62 508 75.3333 451.667 102 399C128.667 346.333 167.333 304 218 272C268.667 239.333 328 223 396 223C456 223 509.333 235.667 556 261C603.333 286.333 641.333 320.667 670 364C699.333 407.333 718 455.333 726 508L728 523H568L566 513C556 471 536 437 506 411C476 384.333 439.333 371 396 371C359.333 371 327.667 380.333 301 399C275 417.667 255 442 241 472C227.667 502 221 534 221 568C221 602 227.667 634 241 664C255 694 275.333 718.333 302 737C328.667 755 360 764 396 764C439.333 764 476 751 506 725C536 698.333 556 664 566 622L568 611H728L726 626C718 679.333 699.333 727.667 670 771C641.333 814.333 603.333 849 556 875C509.333 900.333 456 913 396 913C328 913 268.667 897 218 865C167.333 832.333 128.667 789.667 102 737Z" fill="white"/>
<path d="M102 737C75.3333 683.667 62 627.333 62 568C62 508 75.3333 451.667 102 399C128.667 346.333 167.333 304 218 272C268.667 239.333 328 223 396 223C456 223 509.333 235.667 556 261C603.333 286.333 641.333 320.667 670 364C699.333 407.333 718 455.333 726 508L728 523H568L566 513C556 471 536 437 506 411C476 384.333 439.333 371 396 371C359.333 371 327.667 380.333 301 399C275 417.667 255 442 241 472C227.667 502 221 534 221 568C221 602 227.667 634 241 664C255 694 275.333 718.333 302 737C328.667 755 360 764 396 764C439.333 764 476 751 506 725C536 698.333 556 664 566 622L568 611H728L726 626C718 679.333 699.333 727.667 670 771C641.333 814.333 603.333 849 556 875C509.333 900.333 456 913 396 913C328 913 268.667 897 218 865C167.333 832.333 128.667 789.667 102 737Z" fill="white"/>
<path d="M1663 900V236H2120C2162.67 236 2199 245.333 2229 264C2259 282.667 2281.33 307.667 2296 339C2311.33 369.667 2319 403.333 2319 440C2319 487.333 2306 529 2280 565C2254 601 2217 623.667 2169 633C2170.33 635 2171.67 637 2173 639C2175 641 2176.67 643.667 2178 647L2330 900H2157L2001 638H1816V900H1663ZM1816 378V497H2120C2134.67 497 2146 492.333 2154 483C2162 473.667 2166 461.667 2166 447V428C2166 412.667 2162 400.667 2154 392C2146 382.667 2134.67 378 2120 378H1816ZM3122.15 236V378H2643.15V497H2999.15V638H2643.15V759H3122.15V900H2490.15V236H3122.15Z" fill="white"/>
<circle cx="961" cy="321" r="46.5" fill="#EF4242" stroke="#EF4242"/>
<path d="M1483 647.5C1508.12 647.5 1528.5 668.309 1528.5 694C1528.5 719.691 1508.12 740.5 1483 740.5C1457.88 740.5 1437.5 719.691 1437.5 694C1437.5 668.309 1457.88 647.5 1483 647.5Z" fill="#EF4242" stroke="#EF4242"/>
<path d="M1127.5 218.5C1142.4 218.5 1154.5 230.804 1154.5 246C1154.5 261.196 1142.4 273.5 1127.5 273.5C1112.6 273.5 1100.5 261.196 1100.5 246C1100.5 230.804 1112.6 218.5 1127.5 218.5Z" fill="#EF4242" stroke="#EF4242"/>
<path d="M1352 815.5C1367.76 815.5 1380.5 827.829 1380.5 843C1380.5 858.171 1367.76 870.5 1352 870.5C1336.24 870.5 1323.5 858.171 1323.5 843C1323.5 827.829 1336.24 815.5 1352 815.5Z" fill="#EF4242" stroke="#EF4242"/>
<circle cx="1016" cy="843" r="27.5" fill="#EF4242" stroke="#EF4242"/>
<circle cx="1082" cy="731" r="27.5" fill="#EF4242" stroke="#EF4242"/>
<circle cx="1389" cy="470" r="27.5" fill="#EF4242" stroke="#EF4242"/>
<circle cx="1183" cy="490" r="27.5" fill="#EF4242" stroke="#EF4242"/>
<circle cx="1501" cy="508" r="27.5" fill="#EF4242" stroke="#EF4242"/>
<circle cx="848" cy="602" r="27.5" fill="#EF4242" stroke="#EF4242"/>
<circle cx="1333" cy="602" r="27.5" fill="#EF4242" stroke="#EF4242"/>
<circle cx="998" cy="546" r="27.5" fill="#EF4242" stroke="#EF4242"/>
<path d="M1324 236.5C1344.15 236.5 1360.5 253.277 1360.5 274C1360.5 294.723 1344.15 311.5 1324 311.5C1303.85 311.5 1287.5 294.723 1287.5 274C1287.5 253.277 1303.85 236.5 1324 236.5Z" fill="#EF4242" stroke="#EF4242"/>
<circle cx="1436" cy="367" r="18.5" fill="#EF4242" stroke="#EF4242"/>
<path d="M1193.5 647.5C1202.85 647.5 1210.5 655.743 1210.5 666C1210.5 676.257 1202.85 684.5 1193.5 684.5C1184.15 684.5 1176.5 676.257 1176.5 666C1176.5 655.743 1184.15 647.5 1193.5 647.5Z" fill="#EF4242" stroke="#EF4242"/>
<path d="M876 442.5C885.64 442.5 893.5 450.757 893.5 461C893.5 471.243 885.64 479.5 876 479.5C866.36 479.5 858.5 471.243 858.5 461C858.5 450.757 866.36 442.5 876 442.5Z" fill="#EF4242" stroke="#EF4242"/>
<circle cx="1101" cy="405" r="18.5" fill="#EF4242" stroke="#EF4242"/>
<circle cx="1286" cy="367" r="18.5" fill="#EF4242" stroke="#EF4242"/>
<path d="M1249.5 759.5C1258.85 759.5 1266.5 767.743 1266.5 778C1266.5 788.257 1258.85 796.5 1249.5 796.5C1240.15 796.5 1232.5 788.257 1232.5 778C1232.5 767.743 1240.15 759.5 1249.5 759.5Z" fill="#EF4242" stroke="#EF4242"/>
<path d="M1193.5 871.5C1202.85 871.5 1210.5 879.743 1210.5 890C1210.5 900.257 1202.85 908.5 1193.5 908.5C1184.15 908.5 1176.5 900.257 1176.5 890C1176.5 879.743 1184.15 871.5 1193.5 871.5Z" fill="#EF4242" stroke="#EF4242"/>
<circle cx="913" cy="740" r="18.5" fill="#EF4242" stroke="#EF4242"/>
<line x1="1125.34" y1="244.1" x2="1325.34" y2="274.1" stroke="#EF4242" stroke-width="18"/>
<line x1="1321.67" y1="272.013" x2="1438.67" y2="367.013" stroke="#EF4242" stroke-width="18"/>
<line x1="1438.16" y1="371.2" x2="1506.16" y2="517.2" stroke="#EF4242" stroke-width="18"/>
<line x1="1014.6" y1="838.382" x2="1190.6" y2="891.382" stroke="#EF4242" stroke-width="18"/>
<line x1="1498.97" y1="501.719" x2="1481.97" y2="713.719" stroke="#EF4242" stroke-width="18"/>
<line x1="1123.9" y1="247.343" x2="1099.9" y2="406.343" stroke="#EF4242" stroke-width="18"/>
<line x1="1093.33" y1="410.226" x2="996.327" y2="546.226" stroke="#EF4242" stroke-width="18"/>
<path d="M1479.53 703L1348.53 849" stroke="#EF4242" stroke-width="18"/>
<line x1="952.66" y1="316.3" x2="1104.66" y2="408.301" stroke="#EF4242" stroke-width="18"/>
<line x1="879.169" y1="460.633" x2="1003.17" y2="547.633" stroke="#EF4242" stroke-width="18"/>
<line x1="1012.93" y1="547.473" x2="1192.93" y2="665.473" stroke="#EF4242" stroke-width="18"/>
<line x1="846.92" y1="596.543" x2="997.92" y2="541.544" stroke="#EF4242" stroke-width="18"/>
<line x1="988.911" y1="536.246" x2="1185.91" y2="489.246" stroke="#EF4242" stroke-width="18"/>
<line x1="1199.81" y1="492.079" x2="1387.81" y2="467.079" stroke="#EF4242" stroke-width="18"/>
<line x1="1104.4" y1="408.673" x2="1189.4" y2="494.673" stroke="#EF4242" stroke-width="18"/>
<line x1="1292.4" y1="368.673" x2="1377.4" y2="454.673" stroke="#EF4242" stroke-width="18"/>
<line x1="1337.1" y1="596.585" x2="1478.1" y2="693.585" stroke="#EF4242" stroke-width="18"/>
<line x1="1199.07" y1="669.006" x2="1251.07" y2="774.006" stroke="#EF4242" stroke-width="18"/>
<line x1="1197.02" y1="670.05" x2="1071.02" y2="733.05" stroke="#EF4242" stroke-width="18"/>
<line x1="1002.12" y1="544.21" x2="914.339" y2="742.089" stroke="#EF4242" stroke-width="18"/>
<line x1="999.148" y1="542.178" x2="1090.15" y2="736.178" stroke="#EF4242" stroke-width="18"/>
<line x1="913.306" y1="737.027" x2="1081.31" y2="724.027" stroke="#EF4242" stroke-width="18"/>
<line x1="1182.99" y1="497.616" x2="1191.99" y2="661.616" stroke="#EF4242" stroke-width="14"/>
<line x1="1283.01" y1="371.65" x2="1183.01" y2="495.65" stroke="#EF4242" stroke-width="18"/>
<line x1="1278.12" y1="364.746" x2="1105.12" y2="406.746" stroke="#EF4242" stroke-width="18"/>
<line x1="1335.87" y1="600.126" x2="1188.87" y2="670.126" stroke="#EF4242" stroke-width="18"/>
<line x1="1505.36" y1="508.872" x2="1348.36" y2="595.872" stroke="#EF4242" stroke-width="18"/>
<line x1="1486.01" y1="697.481" x2="1241.01" y2="784.481" stroke="#EF4242" stroke-width="18"/>
<line x1="1290.26" y1="363.652" x2="1122.26" y2="259.652" stroke="#EF4242" stroke-width="18"/>
<line x1="1346.63" y1="618.221" x2="1182.63" y2="496.221" stroke="#EF4242" stroke-width="18"/>
<line x1="1497.45" y1="519.272" x2="1385.45" y2="471.272" stroke="#EF4242" stroke-width="18"/>
<line x1="1380.76" y1="472.373" x2="1428.76" y2="363.373" stroke="#EF4242" stroke-width="18"/>
<line x1="1332.76" y1="588.373" x2="1380.76" y2="479.373" stroke="#EF4242" stroke-width="18"/>
<line x1="1248.81" y1="772.272" x2="1319.81" y2="616.272" stroke="#EF4242" stroke-width="18"/>
<line x1="1252.78" y1="777.106" x2="1355.78" y2="843.106" stroke="#EF4242" stroke-width="14"/>
<line x1="1100.2" y1="731.355" x2="1251.2" y2="781.355" stroke="#EF4242" stroke-width="14"/>
<line x1="1245.99" y1="786.15" x2="1192.99" y2="888.15" stroke="#EF4242" stroke-width="18"/>
<line x1="1089.38" y1="735.848" x2="1200.38" y2="894.848" stroke="#EF4242" stroke-width="18"/>
<line x1="999.133" y1="546.539" x2="961.133" y2="327.539" stroke="#EF4242" stroke-width="18"/>
<line x1="1320.84" y1="283.295" x2="1283.84" y2="371.294" stroke="#EF4242" stroke-width="17"/>
<line x1="1007.29" y1="839.349" x2="1074.29" y2="728.349" stroke="#EF4242" stroke-width="18"/>
<line x1="962.698" y1="316.662" x2="876.698" y2="458.662" stroke="#EF4242" stroke-width="18"/>
<line x1="1119.07" y1="248.03" x2="959.065" y2="329.03" stroke="#EF4242" stroke-width="18"/>
<line x1="877.801" y1="455.882" x2="843.801" y2="614.882" stroke="#EF4242" stroke-width="18"/>
<path d="M1341 840.5L1190.5 891" stroke="#EF4242" stroke-width="18"/>
<line x1="843.159" y1="591.2" x2="911.159" y2="737.2" stroke="#EF4242" stroke-width="18"/>
<line x1="909.394" y1="734.666" x2="1014.39" y2="840.666" stroke="#EF4242" stroke-width="18"/>
<path d="M3165.57 711.162V657.344H3410.03V711.162H3316.79V909H3258.81V711.162H3165.57ZM3442.68 657.344H3504.84L3583.29 854.803C3584.05 847.476 3609.06 781.656 3658.33 657.344H3720.11L3620.43 909H3542.74L3442.68 657.344Z" fill="#EF4242"/>
</svg>
